HIERARCHY
ROOT hip
{
  OFFSET 0 0 0
  CHANNELS 6 Xposition Yposition Zposition Zrotation Yrotation Xrotation
  JOINT abdomen
  {
    OFFSET 0 20.6881 -0.73152
    CHANNELS 3 Zrotation Xrotation Yrotation
    JOINT chest
    {
      OFFSET 0 11.7043 -0.48768
      CHANNELS 3 Zrotation Xrotation Yrotation
      JOINT neck
      {
        OFFSET 0 22.1894 -2.19456
        CHANNELS 3 Zrotation Xrotation Yrotation
        JOINT head
        {
          OFFSET -0.24384 7.07133 1.2192
          CHANNELS 3 Zrotation Xrotation Yrotation
          JOINT leftEye
          {
            OFFSET 4.14528 8.04674 8.04672
            CHANNELS 3 Zrotation Xrotation Yrotation
            End Site
            {
              OFFSET 1 0 0
            }
          }
          JOINT rightEye
          {
            OFFSET -3.6576 8.04674 8.04672
            CHANNELS 3 Zrotation Xrotation Yrotation
            End Site
            {
              OFFSET 1 0 0
            }
          }
        }
      }
      JOINT rCollar
      {
        OFFSET -2.68224 19.2634 -4.8768
        CHANNELS 3 Zrotation Xrotation Yrotation
        JOINT rShldr
        {
          OFFSET -8.77824 -1.95073 1.46304
          CHANNELS 3 Zrotation Xrotation Yrotation
          JOINT rForeArm
          {
            OFFSET -28.1742 -1.7115 0.48768
            CHANNELS 3 Zrotation Xrotation Yrotation
            JOINT rHand
            {
              OFFSET -22.5879 0.773209 7.07136
              CHANNELS 3 Zrotation Xrotation Yrotation
              JOINT rThumb1
              {
                OFFSET -1.2192 -0.487915 3.41376
                CHANNELS 3 Zrotation Xrotation Yrotation
                JOINT rThumb2
                {
                  OFFSET -3.37035 -0.52449 3.41376
                  CHANNELS 3 Zrotation Xrotation Yrotation
                  End Site
                  {
                    OFFSET -1.78271 -1.18214 1.43049
                  }
                }
              }
              JOINT rIndex1
              {
                OFFSET -7.75947 0.938293 5.60832
                CHANNELS 3 Zrotation Xrotation Yrotation
                JOINT rIndex2
                {
                  OFFSET -2.54057 -0.884171 1.56538
                  CHANNELS 3 Zrotation Xrotation Yrotation
                  End Site
                  {
                    OFFSET -1.62519 -0.234802 1.16502
                  }
                }
              }
              JOINT rMid1
              {
                OFFSET -8.24714 1.18213 3.41376
                CHANNELS 3 Zrotation Xrotation Yrotation
                JOINT rMid2
                {
                  OFFSET -3.10165 -0.590103 1.0647
                  CHANNELS 3 Zrotation Xrotation Yrotation
                  End Site
                  {
                    OFFSET -2.48547 -0.328903 0.83742
                  }
                }
              }
              JOINT rRing1
              {
                OFFSET -8.82822 0.546677 1.51678
                CHANNELS 3 Zrotation Xrotation Yrotation
                JOINT rRing2
                {
                  OFFSET -2.60934 -0.819778 -0.0198488
                  CHANNELS 3 Zrotation Xrotation Yrotation
                  End Site
                  {
                    OFFSET -2.33842 -0.294052 0.168128
                  }
                }
              }
              JOINT rPinky1
              {
                OFFSET -8.27202 -0.0477905 -0.4584
                CHANNELS 3 Zrotation Xrotation Yrotation
                JOINT rPinky2
                {
                  OFFSET -1.82734 -0.647385 -0.700984
                  CHANNELS 3 Zrotation Xrotation Yrotation
                  End Site
                  {
                    OFFSET -1.69225 -0.51767 -0.607171
                  }
                }
              }
            }
          }
        }
      }
      JOINT lCollar
      {
        OFFSET 2.68224 19.2634 -4.8768
        CHANNELS 3 Zrotation Xrotation Yrotation
        JOINT lShldr
        {
          OFFSET 8.77824 -1.95073 1.46304
          CHANNELS 3 Zrotation Xrotation Yrotation
          JOINT lForeArm
          {
            OFFSET 28.1742 -1.7115 0.48768
            CHANNELS 3 Zrotation Xrotation Yrotation
            JOINT lHand
            {
              OFFSET 22.5879 0.773209 7.07136
              CHANNELS 3 Zrotation Xrotation Yrotation
              JOINT lThumb1
              {
                OFFSET 1.2192 -0.487915 3.41376
                CHANNELS 3 Zrotation Xrotation Yrotation
                JOINT lThumb2
                {
                  OFFSET 3.37035 -0.52449 3.41376
                  CHANNELS 3 Zrotation Xrotation Yrotation
                  End Site
                  {
                    OFFSET 1.78271 -1.18214 1.43049
                  }
                }
              }
              JOINT lIndex1
              {
                OFFSET 7.75947 0.938293 5.60832
                CHANNELS 3 Zrotation Xrotation Yrotation
                JOINT lIndex2
                {
                  OFFSET 2.54057 -0.884171 1.56538
                  CHANNELS 3 Zrotation Xrotation Yrotation
                  End Site
                  {
                    OFFSET 1.62519 -0.234802 1.16502
                  }
                }
              }
              JOINT lMid1
              {
                OFFSET 8.24714 1.18213 3.41376
                CHANNELS 3 Zrotation Xrotation Yrotation
                JOINT lMid2
                {
                  OFFSET 3.10165 -0.590103 1.0647
                  CHANNELS 3 Zrotation Xrotation Yrotation
                  End Site
                  {
                    OFFSET 2.48547 -0.328903 0.83742
                  }
                }
              }
              JOINT lRing1
              {
                OFFSET 8.82822 0.546677 1.51678
                CHANNELS 3 Zrotation Xrotation Yrotation
                JOINT lRing2
                {
                  OFFSET 2.60934 -0.819778 -0.0198488
                  CHANNELS 3 Zrotation Xrotation Yrotation
                  End Site
                  {
                    OFFSET 2.33842 -0.294052 0.168128
                  }
                }
              }
              JOINT lPinky1
              {
                OFFSET 8.27202 -0.0477905 -0.4584
                CHANNELS 3 Zrotation Xrotation Yrotation
                JOINT lPinky2
                {
                  OFFSET 1.82734 -0.647385 -0.700984
                  CHANNELS 3 Zrotation Xrotation Yrotation
                  End Site
                  {
                    OFFSET 1.69225 -0.51767 -0.607171
                  }
                }
              }
            }
          }
        }
      }
    }
  }
  JOINT rButtock
  {
    OFFSET -8.77824 4.35084 1.2192
    CHANNELS 3 Zrotation Xrotation Yrotation
    JOINT rThigh
    {
      OFFSET 0 -1.70687 -2.19456
      CHANNELS 3 Zrotation Xrotation Yrotation
      JOINT rShin
      {
        OFFSET 0 -36.8199 0.73152
        CHANNELS 3 Zrotation Xrotation Yrotation
        JOINT rFoot
        {
          OFFSET 0.73152 -45.1104 -5.12064
          CHANNELS 3 Zrotation Xrotation Yrotation
          End Site
          {
            OFFSET -1.1221 -3.69964 12.103
          }
        }
      }
    }
  }
  JOINT lButtock
  {
    OFFSET 8.77824 4.35084 1.2192
    CHANNELS 3 Zrotation Xrotation Yrotation
    JOINT lThigh
    {
      OFFSET 0 -1.70687 -2.19456
      CHANNELS 3 Zrotation Xrotation Yrotation
      JOINT lShin
      {
        OFFSET 0 -36.8199 0.73152
        CHANNELS 3 Zrotation Xrotation Yrotation
        JOINT lFoot
        {
          OFFSET -0.73152 -45.1104 -5.12064
          CHANNELS 3 Zrotation Xrotation Yrotation
          End Site
          {
            OFFSET 1.1221 -3.69964 12.103
          }
        }
      }
    }
  }
}
MOTION
Frames:	8
Frame Time:	0.03333
0.0 0.0 0.0 0.0 0.0 0.0 0.0 0.0 0.0 0.0 0.0 0.0 0.0 0.0 0.0 0.0 0.0 0.0 0.0 0.0 0.0 0.0 0.0 0.0 0.0 0.0 0.0 0.0 0.0 0.0 0.0 0.0 0.0 0.0 0.0 0.0 0.0 0.0 0.0 0.0 0.0 0.0 0.0 0.0 0.0 0.0 0.0 0.0 0.0 0.0 0.0 0.0 0.0 0.0 0.0 0.0 0.0 0.0 0.0 0.0 0.0 0.0 0.0 0.0 0.0 0.0 0.0 0.0 0.0 0.0 0.0 0.0 0.0 0.0 0.0 0.0 0.0 0.0 0.0 0.0 0.0 0.0 0.0 0.0 0.0 0.0 0.0 0.0 0.0 0.0 0.0 0.0 0.0 0.0 0.0 0.0 0.0 0.0 0.0 0.0 0.0 0.0 0.0 0.0 0.0 0.0 0.0 0.0 0.0 0.0 0.0 0.0 0.0 0.0 0.0 0.0 0.0 0.0 0.0 0.0 0.0 0.0 0.0 0.0 0.0 0.0 0.0 0.0 0.0 0.0 0.0 0.0
0.0381 46.0685 0.029599999999999998 -15.749375 5.164937 7.62046 9.063889 2.113389 98.612095 -5.458498 -3.598345 -93.556991 11.36963 21.438906 95.267678 -32.293442 6.137173 -75.217481 0.001142 0.0 0.001657 -0.005201 0.0 -0.000148 2.434501 -17.976825 -3.623468 -95.524689 -23.317836 -120.780973 -171.138535 -2.300062 -72.585758 -11.440167 -40.005954 -9.909042 -4.308849 4.193608 0.815074 21.531225 -30.330379 -11.551612 7.829796 -13.647535 -3.744325 177.298459 -40.927753 103.661931 -26.943058 45.613981 21.446142 -169.89316 -25.507747 144.236095 0.004637 1.683247 0.527437 11.323865 -24.293324 -2.918459 -11.766085 -23.278851 -11.168462 -49.412165 -52.715304 -49.986635 154.703405 1.407726 -160.759751 110.748263 -30.814583 110.262593 104.272659 -70.133754 101.746655 3.606324 48.272807 -15.340476 179.519898 -17.01576 -89.338624 -84.310677 -71.981449 -64.575125 -146.278476 -73.333213 -91.291943 -34.790031 -33.088757 6.407767 -4.463685 -13.755664 2.074932 -0.40028 7.963743 -1.230758 0.003298 -0.4631 0.145599 -10.068274 3.95787 -0.441284 50.565545 -49.603694 49.282147 -19.39357 52.748563 -8.425035 0.000595 -0.000739 0.000961 -11.680321 11.226134 -118.634048 -29.581633 -18.281079 62.322264 -36.435809 -26.04491 16.708453 0.000465 0.000295 0.000625 100.553247 -54.012474 8.974957 -88.068371 3.417723 11.134965 -11.033289 -70.33494 80.035321
0.0519 46.0564 0.041100000000000005 -15.725443 5.133838 7.658703 9.025495 2.242163 94.606323 -5.380821 -3.989842 -89.54757 8.50905 29.255898 144.747387 -25.665152 32.297015 -118.784709 0.003332 -0.0 -0.000146 -0.002345 -0.0 0.00051 2.253127 -16.325028 -3.313869 112.822202 41.392527 -75.193345 -177.565399 29.087076 36.600371 -151.313999 25.287223 132.170478 -6.370052 6.1483 1.311723 41.428139 -57.410284 -12.972511 -142.359487 -1.208499 117.132459 -163.952582 -17.464335 119.194669 0.271752 -0.794746 -0.15073 -165.171617 -10.632325 143.8683 -0.790662 -15.387486 -4.979131 11.72253 -2.470242 -0.565928 10.250619 33.563147 8.842981 -165.560853 68.142898 -148.860701 158.009855 -24.414693 -165.889091 128.664817 -2.842728 136.587967 10.020177 43.172487 37.99061 -51.696915 -54.403652 -57.075872 159.832891 2.427396 -88.835518 66.599251 -4.132651 -23.852019 136.034457 8.479724 -113.291902 173.732355 -33.271737 -117.018281 -97.261885 -81.551219 -67.673588 -114.339242 -78.175931 -84.515422 145.117283 -0.125032 179.087713 -10.138536 -1.169415 9.145884 151.87587 36.065547 147.348597 138.48406 -11.831658 134.349873 -179.988056 75.751196 -0.010242 99.193608 76.199486 172.684374 42.31926 -3.888513 129.098979 27.142148 -6.08336 107.620479 0.001257 -0.001161 -0.000573 100.477772 -54.014311 12.390519 -83.521756 13.328398 83.608457 -104.296211 -18.673008 11.049248
0.062200000000000005 46.0436 0.051199999999999996 -15.707487 5.096167 7.695516 9.304843 3.56362 60.47106 -3.56889 -6.758692 -55.370727 -9.888899 20.930641 -69.358797 36.004044 5.77825 87.556879 0.002448 -0.0 -0.000272 0.002448 -0.0 -0.000272 -158.506439 -61.890075 174.059027 130.408496 8.634121 -175.80767 -49.775881 -33.528846 86.527616 -14.801236 -86.120246 -29.259996 -8.950387 8.532051 2.022626 1.93289 -0.770282 4.180207 -74.433386 43.225787 61.626768 -159.825906 -2.600903 113.274568 -164.932225 -20.229916 144.811605 12.006984 -26.391933 -1.115507 -145.022863 -4.685172 -177.65143 -155.913119 63.266427 172.430765 1.05235 2.807974 0.96625 -111.249314 -45.094486 -110.181303 152.312974 13.327704 -157.777703 19.476244 -7.25956 51.109097 -4.834692 -40.91338 48.192157 -83.487955 -60.717771 -87.82339 4.903301 4.76212 -0.951995 53.493873 26.767929 -50.213331 144.43844 -4.70823 -118.232894 38.41485 51.880181 -23.746886 10.053521 24.095501 -6.911639 -88.962227 -78.450873 -60.01564 145.101491 -1.402922 178.688941 -12.04267 29.739027 5.623825 157.582251 58.15084 150.600311 25.411262 -39.816637 25.88839 5.8e-05 0.001038 0.000552 -13.92968 11.45724 104.058084 42.096386 -11.226125 110.614931 19.0395 27.464538 111.261064 0.012503 0.001432 0.007728 101.324803 -53.982002 -10.804925 -90.367106 -4.353784 168.478879 -12.955427 29.657763 -81.788831
0.0726 46.031 0.06130000000000001 -15.698825 5.053549 7.732829 13.753438 2.381364 -89.377441 5.286178 -0.387906 94.702978 11.212273 20.020741 86.76427 -31.05705 1.561695 -68.165037 -0.004004 -0.0 0.000441 -0.004004 -0.0 0.000441 -156.665125 -11.864113 163.533757 -47.627921 -12.511593 40.31176 19.153193 2.464401 -144.840163 -139.58987 38.976169 120.279568 -168.556234 -6.233923 89.892319 -106.877809 11.942786 46.739278 20.185292 -36.081349 -5.971051 169.580755 -49.710318 98.831398 -15.564283 33.165227 11.415421 17.093523 -39.853675 -0.476031 -145.121313 1.352487 -179.552036 -146.53947 81.516732 160.584776 -81.898654 -51.110707 -80.309157 4.927009 4.110683 0.226355 153.626014 7.224518 -159.380422 -40.168027 30.979028 60.525976 -35.934915 2.390641 6.199632 -171.696442 20.887392 -167.931344 169.628712 -7.310595 -89.930445 153.931686 2.13013 -79.497388 -74.498495 -73.756467 -27.491779 158.535479 -18.92534 -115.373149 -174.786389 -64.658718 -138.80661 4.748237 20.177783 -4.388567 145.122172 0.91275 179.414551 76.349408 -77.98027 97.806356 -3.008741 8.428394 -2.743841 177.106996 80.646373 141.013794 -0.001316 -0.00047 -0.001899 -11.675263 11.767933 -86.85964 -30.838814 7.689625 126.407355 -171.372106 -65.159503 101.640259 179.996463 75.750112 0.003626 -142.851601 -17.195637 -50.498201 -89.405455 33.492971 -5.589575 149.970786 29.126348 -84.367099
0.079 46.0202 0.0656 -15.69678 5.014229 7.764328 8.986086 2.030639 97.312075 -5.485635 -3.742945 -92.198211 -9.972672 22.465555 -78.320576 36.303234 10.854956 95.104093 -0.00102 0.0 -0.000845 -0.00102 0.0 -0.000845 -90.738615 67.81203 93.946587 86.753395 -13.490659 43.356546 175.652203 8.794349 36.620741 -146.709149 31.667179 127.475217 -163.758927 -1.43694 89.472186 -153.684842 -0.318517 77.568876 -110.480761 32.996303 93.491758 -165.952948 -14.25301 116.399936 -154.028239 11.916531 139.350403 -161.286469 0.91468 142.287927 -145.123228 1.219298 -179.510965 -3.704191 -56.880063 -24.479716 -9.214098 -19.313626 -8.711629 8.868103 18.988509 4.725353 13.406297 41.889539 -15.212541 -135.253753 -3.997952 -139.159076 177.804753 -25.38638 -128.751984 -85.078938 -60.762218 -89.331042 148.176389 13.079774 -85.523324 -166.846564 -29.232701 -84.825502 149.159812 -13.112818 -120.352206 -148.213062 -66.175067 -90.02021 153.271461 13.747439 -138.828003 -179.841804 -48.940676 -140.842771 145.119328 0.601348 179.316374 -11.751521 25.803078 6.058261 130.199677 -21.813919 127.802236 155.594106 39.33961 146.514502 0.029075 -0.001083 0.022116 -13.798614 10.975795 127.880396 34.91789 -21.863952 132.622222 -144.533502 -83.772704 -52.939437 0.003641 0.000653 0.003037 100.800088 -53.883648 6.052729 -89.751781 -0.125772 -1.899019 7.668451 -38.090654 92.477536
0.0854 46.0086 0.07110000000000001 -15.69482 4.991013 7.783916 8.969579 2.601394 83.624522 -5.027517 -4.990172 -78.537836 7.186145 14.199143 47.632488 -18.549733 -17.145697 -31.966123 0.001391 0.0 0.000282 0.001391 0.0 0.000282 4.276832 -47.625851 -9.252042 160.417321 16.316504 -122.788124 8.012828 -53.343244 112.446558 -13.015622 -31.453626 -8.000285 -170.567636 -8.24895 89.948607 -42.933323 -19.394503 7.647561 -2.59448 4.084559 1.529209 7.404052 5.235937 0.392735 -160.017832 -4.659109 142.92859 -13.804242 36.522398 11.222083 -0.049216 -3.083806 -0.970167 9.22204 15.168797 2.026394 7.660339 23.838801 6.782009 23.633211 68.830301 8.442528 -2.704017 -20.577063 4.108481 -161.938079 -27.647732 -99.465489 3.55597 82.030059 -22.103385 63.996912 83.742414 -65.023409 6.880276 6.623813 -1.4434 12.323725 12.157569 -14.424083 118.727895 27.298926 -100.353169 -2.255819 8.443269 5.951468 -55.18557 -78.192363 -27.603119 63.47842 63.280896 -56.159949 0.426471 -11.046051 3.52446 149.609824 -73.458869 173.69321 149.654504 27.550538 145.634335 21.764458 -36.942898 23.019795 0.005827 0.000469 0.00603 -11.731238 11.78683 -82.194886 -42.448065 5.413249 -64.495613 -133.791548 85.671832 -121.839301 0.005827 0.000469 0.00603 101.692749 -56.073105 -160.738715 84.549652 -16.647122 -118.361632 -138.460002 -42.799241 -10.895436
0.0921 45.995200000000004 0.07519999999999999 -15.68495 4.993965 7.79292 8.948068 2.52988 85.945215 -5.161727 -4.771403 -80.893849 -8.602105 27.182735 -107.186279 32.994531 26.313489 120.252497 -0.001198 -0.0 0.001271 -0.001849 0.0 -0.00118 -2.874332 14.367837 3.5909 73.695473 14.521022 -27.140052 -5.520605 -0.463364 109.210954 -10.697925 -44.041319 -10.769628 -7.268398 6.984858 1.54714 -68.74001 24.144023 64.634033 -6.836067 10.2077 4.260428 -95.967708 45.497838 74.435241 -13.755918 30.460519 9.901487 -87.476169 64.12601 79.365703 -145.104743 3.946729 179.631825 11.445963 25.152886 -6.114065 -36.050483 -44.55652 -34.943895 -140.624829 -5.098516 -138.424306 27.477987 56.703046 -29.825314 52.497392 0.331297 -23.859266 -175.637093 -9.304751 167.555331 156.369928 77.81921 -153.82397 -17.894823 -17.661665 -0.03148 -11.963538 -40.924968 24.926616 116.737568 28.834989 -98.723621 -17.677316 -20.282264 8.029891 33.571768 50.307479 -27.538163 154.667777 18.214036 -139.138528 145.117358 2.688978 179.972821 -11.602308 26.514971 5.972491 -4.637121 13.495872 -4.192386 154.336819 36.006754 148.219321 -179.873292 75.749218 -0.099705 95.644921 77.588544 68.462675 -0.859398 30.260239 41.483012 -110.404166 49.005148 21.588091 -0.000462 0.000793 -0.001707 101.82777 -53.935067 -21.934649 -84.347433 -24.413681 66.006314 118.98912 -9.157993 -28.914544
